PathFileType	4	(X/Y/Z)	Walk1_0-155.trc
DataRate	CameraRate	NumFrames	NumMarkers	Units	OrigDataRate	OrigDataStartFrame	OrigNumFrames
30	30	4	22	m	30	0	155
Frame#	Time	Hip			RHip			RKnee			RAnkle			RBigToe			RSmallToe			RHeel			LHip			LKnee			LAnkle			LBigToe			LSmallToe			LHeel			Neck			Head			Nose			RShoulder			RElbow			RWrist			LShoulder			LElbow			LWrist		
		X1	Y1	Z1	X2	Y2	Z2	X3	Y3	Z3	X4	Y4	Z4	X5	Y5	Z5	X6	Y6	Z6	X7	Y7	Z7	X8	Y8	Z8	X9	Y9	Z9	X10	Y10	Z10	X11	Y11	Z11	X12	Y12	Z12	X13	Y13	Z13	X14	Y14	Z14	X15	Y15	Z15	X16	Y16	Z16	X17	Y17	Z17	X18	Y18	Z18	X19	Y19	Z19	X20	Y20	Z20	X21	Y21	Z21	X22	Y22	Z22
1	0.03333333333333333	-2.562411552308202	0.8395704827651158	0.38944563587968606	-2.5564704507899303	0.8063211160312838	0.4853449632535091	-2.5490306610331	0.44243923995308637	0.5035973189115674	-2.5673651178238326	0.09007690614711794	0.5044966401575816	-2.415194755666664	0.0024187072222870178	0.5528440226992631	-2.4565497041145203	-0.013568489010133388	0.6032910660132623	-2.6019966293756025	0.024775406908850425	0.4923376694454317	-2.5646721927886684	0.806067593054695	0.3074665860518939	-2.5456043492499076	0.45645986951069745	0.29249498668090473	-2.565764922571826	0.08791195193397489	0.28205335456066416	-2.3755539776369003	-0.00022217976809046786	0.27782599890571436	-2.4125074763296377	-0.006661930565536033	0.20653079839082897	-2.6174024001041554	0.006665299427641329	0.28973487418075744	-2.5594359745401203	1.5336314358362857	0.35176791707059507	-2.5328518375277516	1.7936631078921734	0.3664154788941906	-2.43040818356873	1.6763829268046833	0.33795081614383127	-2.5908980149371397	1.421747191397715	0.5371316164964733	-2.5586725848047074	1.0989882960607655	0.587477761726962	-2.4679424642663146	0.8634990252749107	0.6072568254956068	-2.568579517649012	1.4071385555642189	0.20297901488711914	-2.5478026457498473	1.103310479718411	0.15128399027947675	-2.4833655550385685	0.8607692083148722	0.16739199803496402
2	0.06666666666666667	-2.5681602259677168	0.8448717986358342	0.3922931399514024	-2.558493819397146	0.8120550422375302	0.484504548278674	-2.5445330241854625	0.4471129766688283	0.5020618085000155	-2.5598018506536757	0.09474587920593697	0.5072887605673071	-2.4205978669819554	-0.008255789782119966	0.5304813434242127	-2.459490764689762	-0.00973241138909526	0.5977224272837879	-2.621502105708065	0.015012740163909351	0.49338669797268864	-2.56706516947228	0.8103357097501334	0.3048809236626309	-2.5464578689901716	0.4580050913621011	0.2894679361985912	-2.58091836280816	0.08722298736550102	0.25770096716847857	-2.3755774412651993	-0.00513422436553443	0.27931357844790644	-2.4171447960316454	-0.009379360699526185	0.20559027397930313	-2.6151269135081163	0.00877168728663017	0.29722917878476707	-2.562301661651486	1.532412516149252	0.3486666840220836	-2.506464007063741	1.7879609768130722	0.377307115494594	-2.4278432661901435	1.6669201317591678	0.3542391842390003	-2.5892427368213746	1.4223809540212589	0.5351313967958685	-2.5530392972631883	1.0978534482740747	0.582074008465968	-2.464498835842531	0.8616147928929141	0.6074888631960809	-2.61369016763612	1.4254904831263884	0.14306749801477267	-2.5467348413802267	1.1075999486871697	0.15081054237555572	-2.4814638159563334	0.8652294207394368	0.16845422352610093
3	0.1	-2.5700176578304226	0.8449336728596787	0.39038344785613593	-2.5611558913361865	0.8142203076788179	0.4847752643567927	-2.584038030089675	0.45305824408867046	0.47092296543754786	-2.569205219654129	0.09427922657322847	0.5096520263799428	-2.4206126632969722	-0.005035953127022018	0.5281534302704436	-2.4630114057460606	-0.01083318421224389	0.5974940308585576	-2.6608292939074545	-0.0005882481811442055	0.4914757876148694	-2.5659732261049593	0.8120788955114642	0.30251645533095933	-2.5461689070093856	0.4587368773527524	0.29036753841085655	-2.5809449653845262	0.08641289216850855	0.2600808925312845	-2.375829323828406	-0.0027458513099745145	0.2776158915758339	-2.415148901549668	-0.008483950025748041	0.20689943285450765	-2.6177825730593614	0.009179305864315555	0.29864443376709654	-2.5607744193086344	1.5318252285878096	0.34674055023580697	-2.5041898817542534	1.7900620316994025	0.3723198173976864	-2.428546589408614	1.6703339272941669	0.33629445110350176	-2.5880571962530796	1.4209168370008303	0.528968128300627	-2.5395122118825078	1.103329941910071	0.6162572207766818	-2.4660812596845196	0.862908966387844	0.606844325049306	-2.6103688758394648	1.4268513330948556	0.13985583353166864	-2.5451638172768565	1.1076746301496114	0.1480960574328183	-2.4802348420779348	0.863563839402486	0.1653102860909644
4	0.13333333333333333	-2.572169544879872	0.8454949020899406	0.3901787303632045	-2.561861792245831	0.8167877571682469	0.4847332906196294	-2.549560467640531	0.44801321437953706	0.5024068513408226	-2.566015113107159	0.09916746892194955	0.5132201709935273	-2.4214885496215057	-0.00584573538923669	0.5292980517798239	-2.462860227797388	-0.010895042223562662	0.5981662443273279	-2.6598964877350615	-0.0034647803316681766	0.4925905118416807	-2.5672599643440814	0.8131947994754652	0.30456805029174977	-2.543575426669096	0.4598754608389139	0.29068292685005204	-2.563197958004406	0.08851967441864786	0.2808499094764077	-2.375798653019541	-0.0027643821345069296	0.278058771506012	-2.414837764846696	-0.007349283811064682	0.20799246936554258	-2.6159199873138785	0.008686160992348936	0.29923837807055575	-2.558750154202381	1.5316939843973767	0.34461802258425894	-2.5049418418673386	1.791540378934092	0.3716920279847146	-2.4274782782181457	1.670731600780238	0.3293116013919753	-2.5861177485142703	1.423271027794727	0.5255241637843117	-2.5387218321149034	1.1015934059920647	0.6152646330025998	-2.4640374932676723	0.8608150037365219	0.6053196767673524	-2.6085836038701165	1.4284572824516355	0.13792977634250284	-2.5449884165586525	1.1088236282358712	0.14840797031748978	-2.4786391504042093	0.8652230991045781	0.1615918668102375
